<svg width="64" height="64" viewBox="0 0 64 64" fill="none" xmlns="http://www.w3.org/2000/svg">
<path fill-rule="evenodd" clip-rule="evenodd" d="M30.781 51.219C29.7397 50.1776 29.7396 48.4891 30.781 47.4477L46.2288 32L30.781 16.5523C29.7396 15.5109 29.7396 13.8224 30.781 12.781C31.8224 11.7396 33.5109 11.7396 34.5523 12.781L50 28.2288C52.0828 30.3116 52.0828 33.6884 50 35.7712L34.5523 51.219C33.5109 52.2603 31.8224 52.2603 30.781 51.219Z" fill="#DCDCDC"/>
<path fill-rule="evenodd" clip-rule="evenodd" d="M14.1144 51.219C13.073 50.1776 13.073 48.4891 14.1144 47.4477L29.5621 32L14.1144 16.5523C13.073 15.5109 13.073 13.8224 14.1144 12.781C15.1558 11.7396 16.8443 11.7396 17.8857 12.781L33.3334 28.2288C35.4162 30.3116 35.4162 33.6884 33.3334 35.7712L17.8857 51.219C16.8443 52.2603 15.1558 52.2603 14.1144 51.219Z" fill="#DCDCDC"/>
</svg>
