<svg width="24" height="24" viewBox="0 0 24 24" fill="none" xmlns="http://www.w3.org/2000/svg">
  <path fill-rule="evenodd" clip-rule="evenodd" d="M12.7071 9.70711C13.0976 9.31658 13.7308 9.31658 14.1213 9.70711C14.5118 10.0976 14.5118 10.7308 14.1213 11.1213L12 13.2426V5C12 4.44772 11.5523 4 11 4C10.4477 4 10 4.44772 10 5V13.2426L7.87868 11.1213C7.48815 10.7308 7.48815 10.0976 7.87868 9.70711C8.2692 9.31658 8.90237 9.31658 9.29289 9.70711L12 12.4142L12.7071 11.7071L12.7071 9.70711ZM3 19C3 19.5523 3.44772 20 4 20H20C20.5523 20 21 19.5523 21 19C21 18.4477 20.5523 18 20 18H4C3.44772 18 3 18.4477 3 19Z" fill="white"/>
</svg>
