<svg width="24" height="24" viewBox="0 0 24 24" fill="none" xmlns="http://www.w3.org/2000/svg">
<path d="M3.98561 21.1911L9.28891 20.1305C9.4825 20.0918 9.6603 19.9966 9.7999 19.857L16.4497 13.2072C16.8402 12.8166 16.8402 12.1835 16.4497 11.7929L12.2071 7.5503C11.8165 7.15978 11.1834 7.15978 10.7928 7.55031L4.14305 14.2002C4.00345 14.3398 3.90829 14.5176 3.86958 14.7111L2.80892 20.0144C2.66897 20.7142 3.28589 21.3311 3.98561 21.1911Z" fill="#82888F"/>
<path d="M20.1924 5.22185L18.7782 3.80763C17.6066 2.63606 15.7071 2.63606 14.5356 3.80763L13.5503 4.79292C13.1598 5.18344 13.1598 5.81661 13.5503 6.20713L17.7929 10.4498C18.1834 10.8403 18.8166 10.8403 19.2071 10.4498L20.1924 9.46449C21.364 8.29292 21.364 6.39342 20.1924 5.22185Z" fill="#82888F"/>
</svg>
