<svg width="24" height="24" viewBox="0 0 24 24" fill="none" xmlns="http://www.w3.org/2000/svg">
<path d="M3.70711 9.20696C3.31658 9.59748 2.68342 9.59748 2.29289 9.20696C1.90237 8.81643 1.90237 8.18327 2.29289 7.79274L5.58579 4.49985C6.36684 3.7188 7.63317 3.7188 8.41421 4.49985L11.7071 7.79274C12.0976 8.18327 12.0976 8.81643 11.7071 9.20696C11.3166 9.59748 10.6834 9.59748 10.2929 9.20696L8 6.91406V18.9998C8 19.5521 7.55228 19.9998 7 19.9998C6.44772 19.9998 6 19.5521 6 18.9998V6.91406L3.70711 9.20696Z" fill="white"/>
<path d="M18 5C18 4.44772 17.5523 4 17 4C16.4477 4 16 4.44772 16 5V17.0858L13.7071 14.7929C13.3166 14.4024 12.6834 14.4024 12.2929 14.7929C11.9024 15.1834 11.9024 15.8166 12.2929 16.2071L15.5858 19.5C16.3668 20.281 17.6332 20.281 18.4142 19.5L21.7071 16.2071C22.0976 15.8166 22.0976 15.1834 21.7071 14.7929C21.3166 14.4024 20.6834 14.4024 20.2929 14.7929L18 17.0858V5Z" fill="white"/>
</svg>
